# xmcd
#
# Track frame offsets:
#	150
#	10610
#	20687
#	29987
#	43332
#	55170
#	67957
#	80987
#	98357
#	109287
#	123055
#	133687
#	148067
#	157575
#	171750
#	185162
#
# Disc length: 2618 seconds
#
# Revision: 2
# Processed by: cddbd v1.4PL0 Copyright (c) Steve Scherf et al.
# Submitted via: audiograbber 1.82.02
#
DISCID=db0a3810
DTITLE=Charley Pride - The Hits Of Charley Pride
DYEAR=1976
DGENRE=Country
TTITLE0=The Happiness Of Having You
TTITLE1=Then Who Am I
TTITLE2=Kiss An Angel Good Mornin'
TTITLE3=I Ain't All Bad
TTITLE4=It's Gonna Take A Little Bit Longer
TTITLE5=I'd Rather Love You
TTITLE6=She's Too Good To Be True
TTITLE7=Did You Think To Pray
TTITLE8=Mississippi Cotton Picking Delta Town
TTITLE9=Hope You're Feelin' Me (Like I'm Feelin' You)
TTITLE10=I'm Just Me
TTITLE11=Amazing Love
TTITLE12=Don't Fight The Feelings Of Love
TTITLE13=A Shoulder To Cry On
TTITLE14=All His Children
TTITLE15=We Could
EXTD=
EXTT0=
EXTT1=
EXTT2=
EXTT3=
EXTT4=
EXTT5=
EXTT6=
EXTT7=
EXTT8=
EXTT9=
EXTT10=
EXTT11=
EXTT12=
EXTT13=
EXTT14=
EXTT15=
PLAYORDER=
